<svg width="89" height="88" viewBox="0 0 89 88" fill="none" xmlns="http://www.w3.org/2000/svg">
<g id="TELE">
<mask id="mask0_10_22" style="mask-type:luminance" maskUnits="userSpaceOnUse" x="0" y="0" width="89" height="88">
<g id="clip0_81_3">
<path id="Vector" d="M88.8148 0H0.814819V88H88.8148V0Z" fill="white"/>
</g>
</mask>
<g mask="url(#mask0_10_22)">
<g id="Group">
<path id="Vector_2" d="M44.8148 88C69.1154 88 88.8148 68.3006 88.8148 44C88.8148 19.6994 69.1154 0 44.8148 0C20.5142 0 0.814819 19.6994 0.814819 44C0.814819 68.3006 20.5142 88 44.8148 88Z" fill="url(#paint0_linear_10_22)"/>
<path id="Vector_3" d="M30.5991 47.2165L35.8194 61.6653C35.8194 61.6653 36.472 63.0172 37.1708 63.0172C37.8698 63.0172 48.2643 52.2036 48.2643 52.2036L59.8236 29.8772L30.7853 43.4867L30.5991 47.2165Z" fill="#C8DAEA"/>
<path id="Vector_4" d="M37.5201 50.9219L36.518 61.5721C36.518 61.5721 36.0984 64.8355 39.361 61.5721C42.6236 58.3088 45.7465 55.7924 45.7465 55.7924" fill="#A9C6D8"/>
<path id="Vector_5" d="M30.6932 47.7321L19.955 44.2333C19.955 44.2333 18.6716 43.7127 19.0849 42.5319C19.1699 42.2885 19.3415 42.0814 19.8549 41.7253C22.2342 40.0668 63.8937 25.0933 63.8937 25.0933C63.8937 25.0933 65.0701 24.697 65.7637 24.9605C65.9353 25.0137 66.0898 25.1116 66.2112 25.2439C66.3327 25.3763 66.4168 25.5385 66.455 25.714C66.5299 26.0242 66.5612 26.3432 66.548 26.6619C66.5447 26.9377 66.5114 27.1932 66.4861 27.5939C66.2323 31.6878 58.6395 62.2414 58.6395 62.2414C58.6395 62.2414 58.1852 64.0292 56.5575 64.0905C56.1574 64.1034 55.759 64.0357 55.3857 63.8913C55.0125 63.7469 54.6721 63.5289 54.385 63.2501C51.1909 60.5026 40.1513 53.0836 37.712 51.4518C37.6568 51.4144 37.6106 51.3656 37.576 51.3087C37.5415 51.2516 37.5195 51.188 37.5118 51.1218C37.4777 50.9499 37.6647 50.7368 37.6647 50.7368C37.6647 50.7368 56.8875 33.6502 57.399 31.8564C57.4386 31.7175 57.289 31.649 57.088 31.7098C55.8114 32.1795 33.6786 46.1564 31.2358 47.6991C31.06 47.7522 30.8742 47.7635 30.6932 47.7321Z" fill="white"/>
</g>
</g>
</g>
<defs>
<linearGradient id="paint0_linear_10_22" x1="44.8148" y1="88" x2="44.8148" y2="0" gradientUnits="userSpaceOnUse">
<stop stop-color="#1D93D2"/>
<stop offset="1" stop-color="#38B0E3"/>
</linearGradient>
</defs>
</svg>
